<svg width="16" height="14" fill="none" xmlns="http://www.w3.org/2000/svg"><path d="M8.844 13.753c-.51.325-1.152.33-1.666.013l-.003-.002-.005-.003-.017-.01-.056-.037a23.728 23.728 0 01-.896-.605 26.12 26.12 0 01-2.15-1.696c-.798-.704-1.654-1.557-2.368-2.508C.98 7.968.34 6.839.104 5.589c-.268-1.426-.027-2.85.82-3.942C1.776.547 3.074 0 4.487 0 5.946 0 7.159.707 7.91 1.272L8 1.34l.09-.068C8.842.707 10.055 0 11.514 0c3.156 0 4.977 3.01 4.368 5.656-.28 1.213-.926 2.317-1.631 3.245-.715.94-1.56 1.79-2.346 2.493a27.231 27.231 0 01-2.983 2.307l-.032.021-.023.015-.016.01-.005.004-.003.002z" fill="#AE4940"/></svg>