<svg width="178" height="48" fill="none" xmlns="http://www.w3.org/2000/svg"><path d="M52.169 44.205c30.45-8.015 62.097-6.815 81.329-6.148.749.027 1.15.356 1.13.737-.019.34-.419.668-1.271.654-24.968-.412-50.892.215-71.657 7.13-.818.272-2.079.643-3.222.804-.907.129-1.828.09-2.567.004a32.834 32.834 0 01-4.366-.835c-.933-.252-1.288-.682-1.268-1.224.021-.523.776-.85 1.892-1.122zM86.512.442c2.487-.141 4.3.835 4.686 2.708.603 2.931-2.234 5.5-4.993 5.859-1.136.148-1.851.164-1.999-.343-.13-.443.552-.933 2.041-1.43 1.74-.579 3.268-2.196 2.829-3.525-.378-1.148-1.958-1.136-3.579-.59a9.73 9.73 0 00-1.015.408c-5.5 2.583-10.926 12.296-20.39 15.765 1.206 1.436 1.815 3.278 1.785 6.126-.02 1.883-.761 4.433-.48 6.345.23 1.58 1.778 2.048 3.218.897 1.38-1.102 2.345-2.442 3.343-4.066 1.478-2.402 3.626-7.31 4.617-8.86.294-.458.602-.613 1.163-.647.498-.029 1.692-.066 2.302-.089.765-.03.921.466.514 1.089-1.25 1.915-3.715 6.701-4.38 8.18-1.487 3.296-.268 5.313 2.37 4.477a20.39 20.39 0 003.468-1.49c-.582-1.507-.633-3.31-.215-4.848.519-1.903 1.568-3.8 3.55-5.686 2.027-1.928 4.626-2.767 6.79-2.563 1.422.133 2.435.733 2.702 2.09.286 1.454-.092 2.425-.941 3.913-1.607 2.818-5.167 5.024-8.427 6.9.573.87 1.507 1.334 2.698 1.174 2.342-.315 5.496-2.885 7.928-5.35a175.53 175.53 0 011.597-1.712c2.151-3.715 5.486-9.463 10.719-18.481.426-.74.713-1.01 1.278-1.01h1.84c.802 0 1.336.291.683 1.406a7190.609 7190.609 0 01-7.669 12.948c1.557-1.13 3.548-2.157 5.521-2.157 1.204 0 2.243.625 2.577 1.568.324.92.147 2.479-.614 3.79-1.167 2.01-2.441 3.578-3.186 5.35-.386.913-.33 1.734.017 2.098.524.546 1.357.365 2.199-.093 1.853-1.007 3.223-2.078 4.888-3.674a11.177 11.177 0 01-.028-2.632c1.03-9.842 9.53-19.879 15.406-20.066 2.535-.078 3.104 1.747 2.437 4.382-.973 3.85-4.531 8.115-8.03 11.803-2.063 2.179-3.524 3.615-6.308 6.11.253 2.203 1.284 3.788 3.227 3.887 2.234.115 4.062-1.36 5.483-2.811.514-.526 1.336-.72 1.702-.348.391.396.385 1.055-.297 1.749-1.814 1.853-4.134 3.909-8.273 3.624-2.475-.17-4.025-1.661-4.805-3.654-1.355 1.204-2.144 1.852-4.059 3.051-1.318.828-2.481 1.252-3.808 1.197-2.551-.103-3.676-1.925-3.333-4.232.252-1.7 1.486-3.767 3.099-6.08 1.13-1.623.388-2.892-1.493-2.173-1.302.497-3.726 2.143-5.639 5.028-1.305 1.966-3.923 6.749-4.275 7.29-.239.365-.555.629-1.212.676-.486.034-1.312.1-1.799.117-.561.02-.819-.578-.508-1.187.225-.437.358-.7 1.37-2.466H94.8l-.284.256c-2.657 2.348-5.14 3.86-7.68 3.984l-.272.008c-1.728.017-2.982-.714-3.807-1.815-2.359 1.335-4.715 2.379-6.458 2.425-1.972.051-3.911-.957-4.198-3.549-1.638 2.561-4.28 4.331-6.742 4.231-2.904-.116-4.347-2.514-4.375-6.936-.02-3.13.958-6.485.33-8.745-1.957.351-3.317.26-4.299-.086a61.02 61.02 0 01-.699 1.328c-3.735 6.898-9.043 16.003-18.966 15.923-4.348-.035-6.5-2.678-6.602-5.395-.086-2.31.937-3.837 2.974-3.979 1.223-.084 2.166.835 1.995 2.188-.126.998-.855 1.666-2.378 1.732-.1.003-.197.085-.195.444.002.69.384 1.485 1.058 2.028 1.788 1.44 4.98 1.174 7.363.016 3.401-1.652 5.444-5.067 10.027-13.485C54.42 15.565 58.4 9.753 61.055 6.9c-2.58.296-4.655.146-6.434-.174l-.114-.02v-.002l-.43-.084c-3.108-.64-5.32-1.749-7.858-1.725-2.579.026-3.979 1.04-4.022 2.403-.047 1.501 1.385 2.301 4.11 2.364.624.014 1.842.125 1.838.57-.004.406-1.073 1.006-1.767 1.134-3.302.606-6.374-1.093-6.32-4.284.056-3.246 3.159-5.24 7.446-5.22 3.035.014 5.403 1.139 7.706 2.03.972.376 1.934.712 2.929.904 2.243.434 4.36.181 5.295-.67.934-.852 1.382-1.394 2.043-1.608.933-.304 2.183-.171 2.582.487.346.566-.043 1.42-.978 2.13-.86.653-2.247 1.028-3.14 1.569-2.323 3.042-3.62 6.231-5.314 9.913 1.972-.022 3.243.643 4.273 1.509.96-.392 1.627-.765 2.709-1.515C71.954 12.214 77.8 2.382 84.904.682c0 .002.002.003.003.005A8.961 8.961 0 0186.51.442zm56.996 13.386h.14c.993.036 1.107 1.043.847 1.859-.318.989-.814 1.116-1.017 1.786-.19.626.059 1.491.403 2.318.919 2.217 2.002 5.084 1.243 7.937-.785 2.942-3.731 4.64-6.425 4.54-2.146-.075-4.229-1.062-4.717-3.297-.207-.948-.025-1.796.329-2.396.025-.044.053-.086.082-.126l.054-.069-.082.062c-1.324.957-2.022 1.027-2.407.572l-.044-.058c-.412-.568-.18-.977 1.293-2.147 1.554-1.233 6.529-5.407 8.329-8.71.486-1.463 1.011-2.311 2.112-2.271h-.14zm-1.795 5.314c-1.351 1.93-4.523 5.027-6.567 6.694l-.122.097.022-.01c.332-.15.701-.2 1.028-.174l.121.013c.881.12 1.413.803 1.388 1.722-.028 1-.488 1.555-1.476 1.784.517 1.203 2.205 1.602 3.4 1.072 1.654-.735 2.342-2.55 2.607-3.929.593-3.08-.292-5.107-.401-7.27zm-50.45 1.336c-.347-.228-1.288-.19-2.086.315-1.558.986-3.143 2.93-3.971 5.6-.36 1.162-.444 2.239-.297 3.147 2.625-1.595 4.01-2.987 5.21-4.3 2.156-2.35 1.954-4.225 1.143-4.762zM2.866 19.047l.156 1.505h-.178c-.12-.58-.573-1.216-1.316-1.216-.354 0-.715.219-.715.658 0 1.06 2.364 1.201 2.364 2.65 0 .6-.481 1.28-1.494 1.28-.537 0-.884-.24-1.096-.24-.149 0-.22.12-.22.233H.213L0 22.419h.162c.135.331.496 1.251 1.452 1.251.566 0 .85-.403.85-.785 0-.403-.114-.644-1.154-1.252-.652-.374-1.105-.685-1.105-1.386 0-.805.644-1.201 1.281-1.201.425 0 .807.24.984.24.2 0 .234-.163.248-.24h.149zm23.543 0l.064 1.59h-.164c-.176-.743-.686-1.308-1.557-1.308-.354 0-.765.141-1.062.43-.276.27-.587.722-.587 1.74 0 1.499.843 2.114 1.735 2.114.87 0 1.38-.502 1.6-.714l.127.127c-.008.014-.616.898-1.918.898-1.14 0-2.365-.678-2.365-2.439 0-1.584 1.189-2.44 2.407-2.44.63 0 1.09.234 1.245.234.036 0 .27 0 .326-.233h.149zm-11.8.098l2.711 3.4h.014v-2.361c0-.813-.199-.87-.679-.905v-.134h1.662v.134c-.445.05-.672.077-.672.905v3.718h-.12l-3.115-3.874h-.014v2.758c0 .728.148.883.666.905v.134h-1.665v-.134c.539-.035.687-.142.687-.905v-3.118c-.29-.353-.403-.39-.687-.39v-.133h1.211zM131.364 8.037c.463-1.536-.537-1.907-2.036-.928-3.439 2.246-8.8 9.666-9.809 16.259-.024.166-.047.331-.067.497a65.763 65.763 0 006.012-6.418c2.29-2.797 5.102-6.755 5.9-9.41zM34.31 19.146l.02 1.011h-.176c-.107-.63-.29-.743-1.076-.743h-.956c-.148 0-.233 0-.233.24v1.57h1.09c.63 0 .701-.17.779-.671h.162v1.64h-.162c-.086-.566-.192-.665-.78-.672l-1.09-.014v1.753c0 .29 0 .298 1.055.298.885 0 1.239-.213 1.55-.927h.199l-.319 1.195h-3.822v-.134c.453-.029.615-.092.615-.637v-3.14c0-.557-.17-.6-.615-.635v-.134h3.759zm-24.782 0v.134c-.517.021-.695.07-.695.636v3.14c0 .55.17.622.694.636v.134H7.425v-.134c.602-.014.687-.134.687-.637v-3.14c0-.522-.1-.607-.687-.635v-.134h2.103zm151.957-.27c.799 0 1.239.468 1.239 1.005 0 .65-.567.947-.949 1.152.949.68 1.097 1.089 1.097 1.562 0 .369-.234 1.16-1.409 1.16-.878 0-1.345-.58-1.345-1.131 0-.615.29-.834.921-1.315-.594-.523-.878-.763-.878-1.336 0-.714.715-1.096 1.324-1.096zm8.473-.084l.063.05-.268.629c-.022.063-.086.063-.164.063h-1.388l-.296.601c.566.1 1.231.22 1.649.729.305.367.382.572.382 1.201 0 .94-.778 1.69-1.897 1.69-.558 0-.892-.17-.892-.424 0-.07 0-.276.284-.276.452 0 .644.439 1.026.439.46 0 .983-.396.983-1.259 0-1.131-1.252-1.464-2.016-1.491-.029 0-.05-.022-.05-.057 0-.007 0-.021.006-.036l.772-1.675h1.479c.185 0 .249-.078.327-.184zm6.221.086l.057.014v4.24c0 .34.141.418.674.418v.106h-1.955v-.106c.41-.014.672-.028.672-.551v-3.202c0-.15 0-.333-.24-.333-.085 0-.085 0-.481.155v-.098l1.273-.643zm-21.596 0l.057.014v4.24c0 .34.141.418.672.418v.106h-1.953v-.106c.41-.014.671-.028.671-.551v-3.202c0-.15 0-.333-.24-.333-.084 0-.084 0-.481.155v-.098l1.274-.643zm6.64 2.572c-.227.184-.567.46-.567 1.103 0 .544.326 1.004.899 1.004.447 0 .779-.297.779-.791 0-.523-.297-.736-1.111-1.316zm.22-2.375c-.532 0-.758.375-.758.714 0 .551.63.955.885 1.117.268-.177.665-.437.665-1.06 0-.389-.247-.772-.792-.772zm-102.9-1.22c-.35-.005-.756.064-.817.409-.082.471.312.73 1.28.73.54 0 1.1-.012 1.758-.14-.486-.713-1.087-.984-2.221-1zm23.439-6.142c1.218-.03 1.912.994 1.642 2.127-.203.853-.943 1.59-2.154 1.55-1.28-.04-1.905-1.104-1.633-2.104.285-1.046 1.124-1.548 2.145-1.573zm54.575-1.691c.415-.901 1.523-1.283 2.327-1.055 1.035.294 1.289 1.513.752 2.682-.611 1.328-1.731 2.387-2.994 3.047-.348.181-.787.338-1.066-.08-.209-.314-.02-.716.412-1.03.326-.236.957-.716 1.198-1.018-.924-.338-1.113-1.495-.629-2.545v-.001z" fill="#fff"/></svg>