<svg width="48" height="48" fill="none" xmlns="http://www.w3.org/2000/svg"><path d="M39.692 36.679c.684-2.089 3.89-22.904 4.287-27.006.12-1.242-.275-2.067-1.048-2.436-.936-.447-2.32-.224-3.927.353C36.8 8.38 8.63 20.276 7.003 20.964 5.459 21.616 4 22.327 4 23.357c0 .724.432 1.131 1.623 1.555 1.239.439 4.36 1.38 6.203 1.885 1.774.488 3.795.065 4.928-.635 1.2-.742 15.054-9.962 16.049-10.77.993-.808 1.786.227.974 1.036-.813.808-10.322 9.988-11.576 11.26-1.523 1.542-.442 3.142.58 3.782 1.166.73 9.554 6.327 10.818 7.225 1.263.898 2.545 1.305 3.718 1.305 1.172 0 1.79-1.537 2.375-3.321z" fill="#fff"/></svg>