<svg width="16" height="14" viewBox="0 0 16 14" fill="none" xmlns="http://www.w3.org/2000/svg">
<path d="M8.84378 13.7529C8.33472 14.0777 7.69209 14.0826 7.17833 13.7658L7.17513 13.7639L7.16987 13.7606L7.15327 13.7502L7.09662 13.7145C7.04877 13.6841 6.98108 13.6406 6.8962 13.5849C6.72657 13.4736 6.4875 13.3128 6.20021 13.1092C5.62782 12.7037 4.8531 12.1206 4.05066 11.4128C3.25274 10.7091 2.39689 9.85557 1.68313 8.90504C0.979387 7.96785 0.3398 6.83914 0.104402 5.58915C-0.164188 4.1629 0.0772668 2.7398 0.924034 1.64713C1.77625 0.547427 3.07369 0 4.48667 0C5.94583 0 7.15875 0.707391 7.91122 1.27204C7.94153 1.29478 7.97137 1.3175 8.00075 1.34018C8.03013 1.3175 8.05998 1.29478 8.09028 1.27204C8.84275 0.707391 10.0557 0 11.5148 0C14.6714 0 16.4924 3.00978 15.8832 5.65556C15.6039 6.86868 14.9567 7.97345 14.2516 8.90092C13.5367 9.84127 12.6918 10.6907 11.9056 11.3944C11.1154 12.1017 10.3571 12.6861 9.79753 13.0934C9.51677 13.2977 9.28356 13.4593 9.11825 13.5712C9.03553 13.6272 8.96964 13.6709 8.92309 13.7014L8.89147 13.7221L8.86804 13.7373L8.85194 13.7477L8.84686 13.7509L8.84378 13.7529Z" fill="#AE4940"/>
</svg>
