<svg width="48" height="48" viewBox="0 0 48 48" fill="none" xmlns="http://www.w3.org/2000/svg">
<path fill-rule="evenodd" clip-rule="evenodd" d="M4 16C4 9.37258 9.37258 4 16 4H32C38.6274 4 44 9.37258 44 16V32C44 38.6274 38.6274 44 32 44H16C9.37258 44 4 38.6274 4 32V16ZM16 8C11.5817 8 8 11.5817 8 16V32C8 36.4183 11.5817 40 16 40H32C36.4183 40 40 36.4183 40 32V16C40 11.5817 36.4183 8 32 8H16ZM20 24C20 26.2091 21.7909 28 24 28C26.2091 28 28 26.2091 28 24C28 21.7909 26.2091 20 24 20C21.7909 20 20 21.7909 20 24ZM24 16C19.5817 16 16 19.5817 16 24C16 28.4183 19.5817 32 24 32C28.4183 32 32 28.4183 32 24C32 19.5817 28.4183 16 24 16ZM33 12C31.3431 12 30 13.3431 30 15C30 16.6569 31.3431 18 33 18C34.6569 18 36 16.6569 36 15C36 13.3431 34.6569 12 33 12Z" fill="white"/>
</svg>
