<svg width="24" height="24" viewBox="0 0 24 24" fill="none" xmlns="http://www.w3.org/2000/svg">
<path fill-rule="evenodd" clip-rule="evenodd" d="M7 8C7 5.23858 9.23858 3 12 3C14.7614 3 17 5.23858 17 8C17 10.4207 15.2798 12.4396 12.9952 12.901C12.9984 12.9335 13 12.9666 13 13V20C13 20.5523 12.5523 21 12 21C11.4477 21 11 20.5523 11 20V13C11 12.9666 11.0016 12.9335 11.0048 12.901C8.72019 12.4396 7 10.4207 7 8ZM9 8C9 9.65685 10.3431 11 12 11C13.6569 11 15 9.65685 15 8C15 6.34315 13.6569 5 12 5C10.3431 5 9 6.34315 9 8Z" fill="white"/>
</svg>
