<svg width="16" height="16" viewBox="0 0 16 16" fill="none" xmlns="http://www.w3.org/2000/svg">
<path fill-rule="evenodd" clip-rule="evenodd" d="M14.6666 6.33325C14.6666 9.09468 12.428 11.3333 9.66659 11.3333C8.51216 11.3333 7.44911 10.942 6.6028 10.2849C6.57092 10.3523 6.5271 10.4155 6.47132 10.4713L2.47132 14.4713C2.21097 14.7317 1.78886 14.7317 1.52851 14.4713C1.26816 14.211 1.26816 13.7889 1.52851 13.5285L5.52851 9.52851C5.58429 9.47274 5.64749 9.42891 5.71493 9.39704C5.05782 8.55072 4.66659 7.48768 4.66659 6.33325C4.66659 3.57183 6.90516 1.33325 9.66659 1.33325C12.428 1.33325 14.6666 3.57183 14.6666 6.33325ZM13.3333 6.33325C13.3333 4.30821 11.6916 2.66659 9.66659 2.66659C7.64154 2.66659 5.99992 4.30821 5.99992 6.33325C5.99992 8.3583 7.64154 9.99992 9.66659 9.99992C11.6916 9.99992 13.3333 8.3583 13.3333 6.33325Z" fill="#C4C4C4"/>
</svg>
