<svg width="48" height="48" viewBox="0 0 48 48" fill="none" xmlns="http://www.w3.org/2000/svg">
<path d="M39.6916 36.6788C40.3759 34.5902 43.5825 13.7749 43.9789 9.67331C44.0986 8.43109 43.7038 7.60562 42.9305 7.23714C41.9954 6.78981 40.6105 7.01348 39.004 7.58953C36.8004 8.3796 8.63031 20.2757 7.00274 20.9644C5.45931 21.616 4 22.3273 4 23.3571C4 24.0812 4.43197 24.4883 5.62271 24.9115C6.86199 25.3508 9.98284 26.2921 11.8256 26.7973C13.6004 27.2849 15.6211 26.8617 16.7536 26.1618C17.954 25.42 31.8077 16.1998 32.8027 15.3921C33.7961 14.5843 34.5888 15.6189 33.7767 16.4283C32.9645 17.2361 23.4547 26.416 22.2009 27.6872C20.6785 29.2303 21.7592 30.8297 22.7801 31.4702C23.9466 32.2007 32.3352 37.7971 33.5987 38.695C34.8623 39.5929 36.1436 40 37.3165 40C38.4895 40 39.1075 38.4633 39.6916 36.6788Z" fill="white"/>
</svg>
